<svg xmlns="http://www.w3.org/2000/svg" width="900" height="1125" viewBox="0 0 900 1125">
  <defs>
    <linearGradient id="bg" x1="0" y1="0" x2="1" y2="1">
      <stop offset="0" stop-color="#ffffff"/>
      <stop offset="1" stop-color="#f7f7f7"/>
    </linearGradient>
    <filter id="shadow" x="-20%" y="-20%" width="140%" height="140%">
      <feDropShadow dx="0" dy="18" stdDeviation="18" flood-color="#000" flood-opacity="0.16"/>
    </filter>
  </defs>

  <rect width="900" height="1125" fill="url(#bg)"/>
  <g filter="url(#shadow)">
    <rect x="110" y="85" width="680" height="955" rx="34" fill="#ffffff"/>
  </g>

  <!-- cargo pants -->
  <g>
    <path d="M360 280 H540
             L565 470
             C570 510 570 510 565 560
             L540 980
             C538 1010 516 1030 488 1030
             H470
             C440 1030 420 1010 418 980
             L405 650
             L392 980
             C390 1010 370 1030 340 1030
             H322
             C294 1030 272 1010 270 980
             L245 560
             C240 510 240 510 245 470Z"
          fill="#111827" opacity="0.92"/>

    <!-- stitching accents -->
    <path d="M360 280 H540" stroke="#F97316" stroke-width="6" opacity="0.85" stroke-linecap="round"/>
    <path d="M330 520 H420" stroke="#F97316" stroke-width="5" opacity="0.70" stroke-linecap="round"/>
    <path d="M480 520 H570" stroke="#F97316" stroke-width="5" opacity="0.70" stroke-linecap="round"/>

    <!-- pockets -->
    <rect x="300" y="520" width="130" height="130" rx="18" fill="#0B1220" opacity="0.9"/>
    <rect x="470" y="520" width="130" height="130" rx="18" fill="#0B1220" opacity="0.9"/>
    <rect x="330" y="710" width="110" height="90" rx="16" fill="#0B1220" opacity="0.9"/>
    <rect x="460" y="710" width="110" height="90" rx="16" fill="#0B1220" opacity="0.9"/>
  </g>

  <rect x="170" y="980" width="560" height="18" rx="9" fill="#111827" opacity="0.06"/>
</svg>

